<?xml version="1.0" encoding="UTF-8" standalone="no"?>
<svg
   xmlns:dc="http://purl.org/dc/elements/1.1/"
   xmlns:cc="http://creativecommons.org/ns#"
   xmlns:rdf="http://www.w3.org/1999/02/22-rdf-syntax-ns#"
   xmlns:svg="http://www.w3.org/2000/svg"
   xmlns="http://www.w3.org/2000/svg"
   xmlns:sodipodi="http://sodipodi.sourceforge.net/DTD/sodipodi-0.dtd"
   xmlns:inkscape="http://www.inkscape.org/namespaces/inkscape"
   width="512"
   height="512"
   viewBox="0 0 135.46666 135.46667"
   version="1.1"
   id="svg8"
   inkscape:version="1.0.1 (0767f8302a, 2020-10-17)"
   sodipodi:docname="logo.svg"
   inkscape:export-filename="/home/ronier/Imagens/bulase.png"
   inkscape:export-xdpi="192.00002"
   inkscape:export-ydpi="192.00002">
  <defs
     id="defs2" />
  <sodipodi:namedview
     id="base"
     pagecolor="#ffffff"
     bordercolor="#666666"
     borderopacity="1.0"
     inkscape:pageopacity="0.0"
     inkscape:pageshadow="2"
     inkscape:zoom="0.70710678"
     inkscape:cx="286.97302"
     inkscape:cy="378.791"
     inkscape:document-units="px"
     inkscape:current-layer="g850"
     inkscape:document-rotation="0"
     showgrid="true"
     inkscape:window-width="1920"
     inkscape:window-height="946"
     inkscape:window-x="0"
     inkscape:window-y="0"
     inkscape:window-maximized="1"
     showguides="false"
     units="px">
    <inkscape:grid
       type="xygrid"
       id="grid312" />
  </sodipodi:namedview>
  <metadata
     id="metadata5">
    <rdf:RDF>
      <cc:Work
         rdf:about="">
        <dc:format>image/svg+xml</dc:format>
        <dc:type
           rdf:resource="http://purl.org/dc/dcmitype/StillImage" />
        <dc:title></dc:title>
      </cc:Work>
    </rdf:RDF>
  </metadata>
  <g
     inkscape:label="Layer 1"
     inkscape:groupmode="layer"
     id="layer1">
    <g
       id="g850"
       inkscape:export-filename="/home/ronier/www/rocktseat/moveit-next/public/favicon.png"
       inkscape:export-xdpi="11.815385"
       inkscape:export-ydpi="11.815385">
      <g
         id="g915">
        <rect
           style="fill:#666666;stroke-width:0.264583;fill-opacity:1"
           id="rect16"
           width="137.58333"
           height="137.58333"
           x="0"
           y="0"
           inkscape:export-filename="/home/ronier/www/rocktseat/moveit-next/public/favicon.png"
           inkscape:export-xdpi="192"
           inkscape:export-ydpi="192" />
        <g
           id="g902"
           transform="matrix(0.68237116,0,0,0.68237116,14.29228,-0.15134162)"
           style="fill:#ffffff;fill-opacity:1">
          <g
             id="g6"
             transform="matrix(0.26458333,0,0,0.26458333,10.583333,31.750001)"
             style="fill:#ffffff;fill-opacity:1">
            <g
               id="g4"
               style="fill:#ffffff;fill-opacity:1">
              <path
                 d="m 496.063,62.299 -46.396,-46.4 c -21.2,-21.199 -55.69,-21.198 -76.888,0 l -18.16,18.161 123.284,123.294 18.16,-18.161 c 21.248,-21.249 21.251,-55.643 0,-76.894 z"
                 id="path2"
                 style="fill:#ffffff;fill-opacity:1" />
            </g>
          </g>
          <g
             id="g12"
             transform="matrix(0.26458333,0,0,0.26458333,10.583333,31.750001)"
             style="fill:#ffffff;fill-opacity:1">
            <g
               id="g10"
               style="fill:#ffffff;fill-opacity:1">
              <path
                 d="M 22.012,376.747 0.251,494.268 c -0.899,4.857 0.649,9.846 4.142,13.339 3.497,3.497 8.487,5.042 13.338,4.143 l 117.512,-21.763 z"
                 id="path8"
                 style="fill:#ffffff;fill-opacity:1" />
            </g>
          </g>
          <g
             id="g18"
             transform="matrix(0.26458333,0,0,0.26458333,10.583333,31.750001)"
             style="fill:#ffffff;fill-opacity:1">
            <g
               id="g16"
               style="fill:#ffffff;fill-opacity:1">
              <polygon
                 points="333.407,55.274 38.198,350.506 161.482,473.799 456.691,178.568 "
                 id="polygon14"
                 style="fill:#ffffff;fill-opacity:1" />
            </g>
          </g>
        </g>
      </g>
      <g
         id="g20"
         transform="matrix(0.26458333,0,0,0.26458333,10.583333,31.750001)" />
      <g
         id="g22"
         transform="matrix(0.26458333,0,0,0.26458333,10.583333,31.750001)" />
      <g
         id="g24"
         transform="matrix(0.26458333,0,0,0.26458333,10.583333,31.750001)" />
      <g
         id="g26"
         transform="matrix(0.26458333,0,0,0.26458333,10.583333,31.750001)" />
      <g
         id="g28"
         transform="matrix(0.26458333,0,0,0.26458333,10.583333,31.750001)" />
      <g
         id="g30"
         transform="matrix(0.26458333,0,0,0.26458333,10.583333,31.750001)" />
      <g
         id="g32"
         transform="matrix(0.26458333,0,0,0.26458333,10.583333,31.750001)" />
      <g
         id="g34"
         transform="matrix(0.26458333,0,0,0.26458333,10.583333,31.750001)" />
      <g
         id="g36"
         transform="matrix(0.26458333,0,0,0.26458333,10.583333,31.750001)" />
      <g
         id="g38"
         transform="matrix(0.26458333,0,0,0.26458333,10.583333,31.750001)" />
      <g
         id="g40"
         transform="matrix(0.26458333,0,0,0.26458333,10.583333,31.750001)" />
      <g
         id="g42"
         transform="matrix(0.26458333,0,0,0.26458333,10.583333,31.750001)" />
      <g
         id="g44"
         transform="matrix(0.26458333,0,0,0.26458333,10.583333,31.750001)" />
      <g
         id="g46"
         transform="matrix(0.26458333,0,0,0.26458333,10.583333,31.750001)" />
      <g
         id="g48"
         transform="matrix(0.26458333,0,0,0.26458333,10.583333,31.750001)" />
    </g>
  </g>
</svg>
